<svg viewBox="0 0 60 60" width="60" height="60" fill="none" xmlns="http://www.w3.org/2000/svg">
  <rect width="60" height="60" rx="14" fill="#f0fdf4"/>
  <path d="M30 8C26 5 19 5 16 10C12 7 7 9 6 15C2 17 1 24 5 29C1 33 1 41 6 44C6 51 12 55 18 53C20 58 26 60 30 57C34 60 40 58 42 53C48 55 54 51 54 44C59 41 59 33 55 29C59 24 58 17 54 15C53 9 48 7 44 10C41 5 34 5 30 8Z" stroke="#059669" stroke-width="2.5" stroke-linejoin="round"/>
  <line x1="30" y1="10" x2="30" y2="50" stroke="#059669" stroke-width="1.2" stroke-dasharray="3,2.5"/>
  <circle cx="20" cy="21" r="2.5" fill="#059669"/>
  <circle cx="40" cy="21" r="2.5" fill="#059669"/>
  <circle cx="25" cy="28" r="2" fill="#059669"/>
  <circle cx="35" cy="28" r="2" fill="#059669"/>
  <circle cx="30" cy="40" r="2" fill="#059669"/>
  <line x1="20" y1="21" x2="25" y2="28" stroke="#059669" stroke-width="1" opacity="0.6"/>
  <line x1="40" y1="21" x2="35" y2="28" stroke="#059669" stroke-width="1" opacity="0.6"/>
  <line x1="25" y1="28" x2="30" y2="40" stroke="#059669" stroke-width="1" opacity="0.6"/>
  <line x1="35" y1="28" x2="30" y2="40" stroke="#059669" stroke-width="1" opacity="0.6"/>
</svg>